:SAMPLES-PER-SECOND 30
:FULLY-SPECIFIED
:DEGREES
148
root  -17.3931 40.25 -12.3175 -5.88954 -73.4131 11.1942
RightUpLeg  -11.1246 -10.933 -8.00196
RightLeg  6.11678 3.31785 1.4432
RightFoot  -0.120298 -0.339279 3.44355
RightToes  2.96859e-009 0 -3.6325e-017
Spine  8.77309 -1.68476 7.70049
Spine1  6.2484 -1.50533 0.562353
HEad  -15.4352 -0.529031 -6.78558
LeftShoulder1  -0.145794 3.90297 -30.375
LeftArm  3.54674 5.54038 -48.119
LeftForeArm  23.72 -19.9215 -4.52418
LeftHand  -0.0152356 4.05635 -0.292849
RightShoulder  -0.554159 -5.18148 26.2576
RightArm  12.496 2.78318 42.9395
RightForeArm  7.54224 28.5891 5.78479
RightHand  -0.36648 1.89189 -6.01685
LeftUpLeg  -0.22065 6.46495 -1.64265
LeftLeg  7.90332 7.5273 -0.442817
LeftFoot  -13.9604 -0.0994253 -8.00152
LeftToes  3.24686e-010 -7.02549e-012 1.39809e-011
149
root  -17.4117 40.1868 -12.205 -3.04214 -73.1614 8.08617
RightUpLeg  -10.7497 -10.6627 -7.43526
RightLeg  6.07238 2.57388 1.53361
RightFoot  -0.543558 -0.34385 3.59712
RightToes  2.96859e-009 0 -3.6325e-017
Spine  8.3217 -1.58023 7.64716
Spine1  6.71664 -1.59673 1.13278
HEad  -15.6203 -1.41956 -7.39693
LeftShoulder1  -0.19438 4.03 -30.8297
LeftArm  3.92738 5.96748 -47.6785
LeftForeArm  23.1232 -19.5187 -4.7475
LeftHand  -0.0267732 5.04087 -0.471125
RightShoulder  -0.528606 -5.11727 25.9662
RightArm  13.5727 2.51222 43.6249
RightForeArm  7.11594 27.3925 5.52705
RightHand  -0.368916 2.05904 -5.93316
LeftUpLeg  0.326014 5.96219 -2.39707
LeftLeg  6.14493 12.9126 -0.795427
LeftFoot  -14.5469 -0.116387 -7.27253
LeftToes  3.24686e-010 -7.02549e-012 1.39809e-011
150
root  -17.4125 40.0589 -12.0793 0.798645 -72.4886 3.87549
RightUpLeg  -11.22 -10.8674 -6.54719
RightLeg  7.96631 2.127 1.69035
RightFoot  -1.38405 -0.342981 3.82751
RightToes  2.96859e-009 0 -3.6325e-017
Spine  8.16403 -1.68403 7.68957
Spine1  6.45536 -1.83842 1.56386
HEad  -14.939 -1.57946 -6.55146
LeftShoulder1  -0.215525 4.09063 -30.5801
LeftArm  3.26156 6.70103 -47.7281
LeftForeArm  23.6558 -18.4932 -5.16889
LeftHand  -0.0246386 4.66439 -0.406415
RightShoulder  -0.567273 -5.20939 26.5005
RightArm  15.0993 2.3071 43.6171
RightForeArm  5.89485 25.7802 5.2217
RightHand  -0.338909 1.83858 -5.60495
LeftUpLeg  0.390015 5.45178 -3.0035
LeftLeg  5.44182 14.9663 -0.775326
LeftFoot  -14.0781 -0.0208541 -4.10153
LeftToes  3.24686e-010 -7.02549e-012 1.39809e-011
151
root  -17.414 39.8356 -11.988 3.81462 -71.4746 0.438553
RightUpLeg  -12.5984 -12.0011 -5.41542
RightLeg  11.7292 2.34339 1.382
RightFoot  -3.00115 -0.314238 4.01894
RightToes  2.96859e-009 0 -3.6325e-017
Spine  8.11396 -1.72583 6.42101
Spine1  5.97205 -2.24654 2.65819
HEad  -13.96 -1.46417 -5.73466
LeftShoulder1  -0.180541 4.00021 -30.2444
LeftArm  2.11884 7.12856 -48.0167
LeftForeArm  24.8043 -17.3247 -5.62194
LeftHand  -0.018657 3.20703 -0.0127049
RightShoulder  -0.595972 -5.28262 26.768
RightArm  15.9166 1.72222 43.6835
RightForeArm  5.67019 24.0826 4.8603
RightHand  -0.295748 1.40059 -5.1967
LeftUpLeg  -0.773221 5.32184 -3.31042
LeftLeg  7.81831 14.9673 0.476004
LeftFoot  -14.1396 0.157135 2.96052
LeftToes  3.24686e-010 -7.02549e-012 1.39809e-011
152
root  -17.4122 39.5047 -11.9532 2.29977 -70.9766 1.00841
RightUpLeg  -14.9494 -12.2444 -5.40642
RightLeg  18.4694 2.36807 0.549482
RightFoot  -5.1811 -0.267436 4.34393
RightToes  2.96859e-009 0 -3.6325e-017
Spine  9.13871 -1.47037 3.10756
Spine1  5.35967 -2.47104 3.9758
HEad  -13.7896 -1.61477 -4.9253
LeftShoulder1  -0.215474 4.09396 -30.3793
LeftArm  -0.212543 6.29183 -47.7807
LeftForeArm  27.7221 -15.1537 -6.39818
LeftHand  -0.00707673 3.89274 -1.10986
RightShoulder  -0.627044 -5.36437 26.9873
RightArm  15.6728 1.12945 44.2308
RightForeArm  5.5775 21.9803 4.56053
RightHand  -0.338275 1.8856 -5.57796
LeftUpLeg  -1.52151 6.34407 -3.02849
LeftLeg  11.9506 13.0182 0.953252
LeftFoot  -16.3269 0.16674 1.62551
LeftToes  3.24686e-010 -7.02549e-012 1.39809e-011
153
root  -17.4296 39.2076 -11.9269 -4.8071 -71.184 6.73619
RightUpLeg  -17.8268 -9.1288 -8.00066
RightLeg  27.3515 0.0350178 -0.200268
RightFoot  -5.89867 -0.337281 6.1462
RightToes  2.96859e-009 0 -3.6325e-017
Spine  10.7025 -1.0412 -1.12811
Spine1  5.50027 -2.40061 4.26848
HEad  -13.8761 -1.2335 -3.62125
LeftShoulder1  -0.211262 4.08116 -30.4047
LeftArm  -1.01039 4.80858 -46.6657
LeftForeArm  28.7789 -13.3048 -7.2007
LeftHand  -0.00503822 3.81371 -1.16454
RightShoulder  -0.66164 -5.42971 27.6573
RightArm  14.4424 0.885595 45.4392
RightForeArm  6.82329 19.3964 4.5172
RightHand  -0.343218 2.16852 -5.45766
LeftUpLeg  -0.385878 7.2033 -4.14457
LeftLeg  13.9041 11.6392 0.182723
LeftFoot  -17.7542 0.15774 0.886354
LeftToes  3.24686e-010 -7.02549e-012 1.39809e-011
